<svg width="600" height="600" viewBox="0 0 600 600" fill="none" xmlns="http://www.w3.org/2000/svg">
<path d="M446.883 415.864C476.379 415.864 476.379 379.208 505.876 379.208C535.374 379.208 535.374 415.864 564.87 415.864" stroke="#EDEDED" stroke-width="2.43867" stroke-miterlimit="10" stroke-linecap="round"/>
<path d="M446.883 379.209C476.379 379.209 476.379 415.865 505.876 415.865C535.374 415.865 535.374 379.209 564.87 379.209" stroke="#EDEDED" stroke-width="2.43867" stroke-miterlimit="10" stroke-linecap="round"/>
<path d="M450.588 415.395V379.477" stroke="#EDEDED" stroke-width="0.814667" stroke-miterlimit="10" stroke-linecap="round"/>
<path d="M462.936 411.13V384.101" stroke="#EDEDED" stroke-width="0.814667" stroke-miterlimit="10" stroke-linecap="round"/>
<path d="M487.63 409.371V385.699" stroke="#EDEDED" stroke-width="0.814667" stroke-miterlimit="10" stroke-linecap="round"/>
<path d="M499.978 414.894V379.94" stroke="#EDEDED" stroke-width="0.814667" stroke-miterlimit="10" stroke-linecap="round"/>
<path d="M512.326 414.894V380.199" stroke="#EDEDED" stroke-width="0.814667" stroke-miterlimit="10" stroke-linecap="round"/>
<path d="M524.674 408.938V385.959" stroke="#EDEDED" stroke-width="0.814667" stroke-miterlimit="10" stroke-linecap="round"/>
<path d="M549.368 411.203V383.694" stroke="#EDEDED" stroke-width="0.814667" stroke-miterlimit="10" stroke-linecap="round"/>
<path d="M561.716 415.395V379.477" stroke="#EDEDED" stroke-width="0.814667" stroke-miterlimit="10" stroke-linecap="round"/>
<path d="M565.278 339.289H514.322V333.623H565.278V339.289Z" fill="#E9E9E9"/>
<path d="M565.278 349.915H514.322V344.249H565.278V349.915Z" fill="#E9E9E9"/>
<path d="M544.984 360.542H514.324V354.875H544.984V360.542Z" fill="#E9E9E9"/>
<path d="M496.398 380.674V348.701H506.321" stroke="#EDEDED" stroke-width="0.814667" stroke-miterlimit="10" stroke-linecap="round"/>
<path d="M510.439 348.604C510.439 349.795 509.54 350.759 508.434 350.759C507.326 350.759 506.429 349.795 506.429 348.604C506.429 347.416 507.326 346.449 508.434 346.449C509.54 346.449 510.439 347.416 510.439 348.604Z" stroke="#EDEDED" stroke-width="0.814667" stroke-miterlimit="10" stroke-linecap="round"/>
<path d="M131.832 80.8302C109.856 80.8302 109.856 53.5204 87.8797 53.5204C65.9035 53.5204 65.9035 80.8302 43.9273 80.8302" stroke="#EDEDED" stroke-width="1.81733" stroke-miterlimit="10" stroke-linecap="round"/>
<path d="M131.832 53.5212C109.856 53.5212 109.856 80.8311 87.8797 80.8311C65.9035 80.8311 65.9035 53.5212 43.9273 53.5212" stroke="#EDEDED" stroke-width="1.81733" stroke-miterlimit="10" stroke-linecap="round"/>
<path d="M129.071 80.4811V53.722" stroke="#EDEDED" stroke-width="0.606667" stroke-miterlimit="10" stroke-linecap="round"/>
<path d="M119.871 77.3034V57.1665" stroke="#EDEDED" stroke-width="0.606667" stroke-miterlimit="10" stroke-linecap="round"/>
<path d="M101.473 75.9925V58.3574" stroke="#EDEDED" stroke-width="0.606667" stroke-miterlimit="10" stroke-linecap="round"/>
<path d="M92.2738 80.1066V54.0643" stroke="#EDEDED" stroke-width="0.606667" stroke-miterlimit="10" stroke-linecap="round"/>
<path d="M83.0737 80.1066V54.2576" stroke="#EDEDED" stroke-width="0.606667" stroke-miterlimit="10" stroke-linecap="round"/>
<path d="M73.8747 75.6699V58.5501" stroke="#EDEDED" stroke-width="0.606667" stroke-miterlimit="10" stroke-linecap="round"/>
<path d="M55.4756 77.3583V56.8619" stroke="#EDEDED" stroke-width="0.606667" stroke-miterlimit="10" stroke-linecap="round"/>
<path d="M46.2763 80.4811V53.722" stroke="#EDEDED" stroke-width="0.606667" stroke-miterlimit="10" stroke-linecap="round"/>
<path d="M43.6227 23.7767H81.5885V19.5564H43.6227V23.7767Z" fill="#E9E9E9"/>
<path d="M43.6227 31.6955H81.5885V27.4753H43.6227V31.6955Z" fill="#E9E9E9"/>
<path d="M58.7441 39.6124H81.5885V35.3921H58.7441V39.6124Z" fill="#E9E9E9"/>
<path d="M94.9411 54.6119V30.7929H87.5467" stroke="#EDEDED" stroke-width="0.606667" stroke-miterlimit="10" stroke-linecap="round"/>
<path d="M84.4797 30.7192C84.4797 31.6064 85.1488 32.3254 85.9725 32.3254C86.7982 32.3254 87.4672 31.6064 87.4672 30.7192C87.4672 29.8319 86.7982 29.115 85.9725 29.115C85.1488 29.115 84.4797 29.8319 84.4797 30.7192Z" stroke="#EDEDED" stroke-width="0.606667" stroke-miterlimit="10" stroke-linecap="round"/>
<path d="M214.389 164.538C213.583 160.708 208.638 137.197 207.2 130.36C205.763 123.526 186.258 121.797 207.25 116.698C228.24 111.601 211.026 121.529 212.68 129.39C214.333 137.251 218.933 159.125 219.796 163.224C220.658 167.326 215.193 168.367 214.389 164.538Z" fill="#E9E9E9"/>
<path d="M243.245 293.537C243.235 297.462 243.177 321.57 243.16 328.576C243.142 335.583 261.798 341.942 240.279 341.883C218.757 341.823 237.598 336.269 237.618 328.211C237.639 320.151 237.691 297.726 237.701 293.522C237.713 289.317 243.254 289.612 243.245 293.537Z" fill="#E9E9E9"/>
<path d="M184.168 207.181C179.72 205.373 152.417 194.273 144.481 191.044C136.541 187.817 120.799 209.332 130.709 181.185C140.621 153.035 138.301 180.245 147.43 183.957C156.559 187.668 181.958 197.995 186.72 199.931C191.483 201.868 188.615 208.989 184.168 207.181Z" fill="#E9E9E9"/>
<path d="M202.927 286.194C201.061 287.821 189.608 297.803 186.28 300.706C182.948 303.609 187.684 316.465 178.771 304.658C169.857 292.85 180.32 300.86 184.149 297.521C187.979 294.182 198.632 284.896 200.631 283.152C202.629 281.411 204.793 284.569 202.927 286.194Z" fill="#E9E9E9"/>
<path d="M177.183 249.656C173.658 250.853 152.004 258.205 145.71 260.343C139.414 262.481 139.441 283.769 132.878 261.446C126.314 239.126 137.094 256.944 144.333 254.488C151.571 252.029 171.716 245.189 175.493 243.907C179.269 242.625 180.71 248.458 177.183 249.656Z" fill="#E9E9E9"/>
<path d="M263.16 252.016C266.938 256.394 290.138 283.282 296.883 291.102C303.629 298.917 330.525 285.202 306.52 309.119C282.514 333.038 298.12 305.859 290.362 296.87C282.608 287.881 261.025 262.867 256.978 258.177C252.93 253.487 259.381 247.638 263.16 252.016Z" fill="#E9E9E9"/>
<path d="M299.046 231.64C302.155 232.525 321.254 237.955 326.806 239.532C332.361 241.111 341.561 225.45 336.714 245.138C331.868 264.828 331.667 246.339 325.28 244.525C318.897 242.709 301.128 237.658 297.797 236.712C294.467 235.765 295.936 230.757 299.046 231.64Z" fill="#E9E9E9"/>
<path d="M212.863 288.285C211.372 292.133 202.205 315.759 199.538 322.629C196.874 329.496 212.774 343.875 191.684 334.427C170.591 324.977 191.175 327.749 194.24 319.851C197.305 311.95 205.832 289.972 207.43 285.852C209.031 281.729 214.356 284.437 212.863 288.285Z" fill="#E9E9E9"/>
<path d="M296.004 193.461C300.037 190.467 324.808 172.075 332.007 166.729C339.208 161.382 331.442 134.417 347.863 159.953C364.283 185.486 344.156 167.423 335.876 173.573C327.596 179.722 304.552 196.831 300.234 200.039C295.913 203.246 291.97 196.455 296.004 193.461Z" fill="#E9E9E9"/>
<path d="M303.729 209.407C305.601 209.015 317.098 206.604 320.442 205.902C323.785 205.202 324.926 194.288 327.078 206.141C329.23 217.995 324.672 208.185 320.83 208.992C316.984 209.796 306.289 212.04 304.282 212.46C302.277 212.882 301.855 209.8 303.729 209.407Z" fill="#E9E9E9"/>
<path d="M254.743 297.178C255.153 299.179 257.661 311.476 258.39 315.052C259.121 318.626 269.3 319.601 258.322 322.186C247.345 324.773 256.365 319.649 255.526 315.539C254.689 311.426 252.355 299.99 251.916 297.843C251.479 295.699 254.335 295.175 254.743 297.178Z" fill="#E9E9E9"/>
<path d="M263.326 174.397C265.428 171.496 278.331 153.694 282.08 148.518C285.834 143.342 275.419 127.145 291.314 140.448C307.207 153.748 290.3 146.251 285.988 152.203C281.674 158.156 269.67 174.717 267.419 177.823C265.17 180.927 261.226 177.295 263.326 174.397Z" fill="#E9E9E9"/>
<path d="M203.289 169.755C202.179 168.088 195.355 157.855 193.373 154.879C191.389 151.904 181.679 155.328 190.815 148.294C199.95 141.263 193.544 149.797 195.825 153.217C198.105 156.639 204.453 166.158 205.643 167.943C206.832 169.728 204.399 171.421 203.289 169.755Z" fill="#E9E9E9"/>
<path d="M242.184 157.369C242.166 154.992 242.058 140.399 242.025 136.156C241.992 131.913 230.661 128.192 243.69 128.079C256.721 127.967 245.347 131.46 245.382 136.339C245.421 141.218 245.521 154.795 245.538 157.34C245.558 159.886 242.201 159.747 242.184 157.369Z" fill="#E9E9E9"/>
<path d="M308.289 238.784C303.743 279.687 269.2 308.886 231.137 304.003C193.071 299.118 165.899 261.996 170.445 221.093C174.989 180.189 209.534 150.991 247.599 155.876C285.663 160.761 312.837 197.879 308.289 238.784Z" fill="#E9E9E9"/>
<path d="M299.372 218.474C299.372 250.374 275.308 276.233 245.622 276.233C215.936 276.233 191.87 250.374 191.87 218.474C191.87 186.574 215.936 160.714 245.622 160.714C275.308 160.714 299.372 186.574 299.372 218.474Z" fill="#F2F2F2"/>
<path d="M288.006 197.663C284.284 206.232 269.492 207.269 254.966 199.982C240.438 192.695 231.68 179.843 235.403 171.274C239.125 162.707 253.918 161.668 268.443 168.957C282.971 176.242 291.729 189.096 288.006 197.663Z" fill="white"/>
<g opacity="0.199997">
<g opacity="0.199997">
<path opacity="0.199997" d="M212.078 211.013C210.436 220.534 205.478 227.531 201 226.641C196.521 225.75 194.222 217.307 195.862 207.786C197.504 198.265 202.463 191.269 206.942 192.161C211.418 193.05 213.719 201.49 212.078 211.013Z" fill="#999898"/>
</g>
<g opacity="0.199997">
<path opacity="0.199997" d="M282.946 210.776C280.378 205.371 280.356 199.859 282.899 198.464C285.442 197.07 289.584 200.322 292.152 205.727C294.72 211.131 294.741 216.644 292.198 218.038C289.657 219.433 285.514 216.183 282.946 210.776Z" fill="#999898"/>
</g>
<g opacity="0.199997">
<path opacity="0.199997" d="M270.811 204.889C269.835 202.836 269.827 200.742 270.792 200.212C271.759 199.682 273.334 200.916 274.309 202.971C275.284 205.024 275.291 207.119 274.326 207.649C273.36 208.179 271.788 206.942 270.811 204.889Z" fill="#999898"/>
</g>
<g opacity="0.199997">
<path opacity="0.199997" d="M214.973 174.937C216.67 173.528 218.585 173.134 219.248 174.056C219.911 174.981 219.07 176.87 217.37 178.278C215.671 179.687 213.758 180.08 213.095 179.157C212.434 178.235 213.273 176.346 214.973 174.937Z" fill="#999898"/>
</g>
<g opacity="0.199997">
<path opacity="0.199997" d="M283.321 227.789C282.347 225.734 282.339 223.639 283.304 223.112C284.271 222.582 285.845 223.816 286.821 225.869C287.794 227.924 287.804 230.018 286.837 230.548C285.872 231.078 284.298 229.842 283.321 227.789Z" fill="#999898"/>
</g>
<g opacity="0.199997">
<path opacity="0.199997" d="M198.515 247.392C202.377 254.035 202.976 261.121 199.852 263.217C196.727 265.314 191.063 261.63 187.202 254.987C183.34 248.344 182.743 241.258 185.867 239.161C188.99 237.065 194.654 240.749 198.515 247.392Z" fill="#999898"/>
</g>
<g opacity="0.199997">
<path opacity="0.199997" d="M198.553 269.517C201.276 272.58 202.314 276.26 200.875 277.739C199.435 279.217 196.061 277.933 193.338 274.872C190.617 271.811 189.575 268.129 191.016 266.65C192.456 265.172 195.831 266.454 198.553 269.517Z" fill="#999898"/>
</g>
<g opacity="0.199997">
<path opacity="0.199997" d="M242.018 285.792C245.953 286.013 249.06 287.922 248.957 290.06C248.853 292.199 245.579 293.753 241.644 293.533C237.707 293.312 234.6 291.401 234.704 289.262C234.807 287.126 238.083 285.572 242.018 285.792Z" fill="#999898"/>
</g>
<g opacity="0.199997">
<path opacity="0.199997" d="M290.031 256.324C293.223 253.843 296.758 253.239 297.926 254.974C299.094 256.709 297.45 260.125 294.256 262.606C291.061 265.087 287.527 265.692 286.361 263.956C285.193 262.221 286.836 258.805 290.031 256.324Z" fill="#999898"/>
</g>
<g opacity="0.199997">
<path opacity="0.199997" d="M185.348 220.719C185.211 218.562 185.92 216.754 186.934 216.68C187.949 216.605 188.883 218.292 189.02 220.447C189.159 222.604 188.45 224.413 187.434 224.488C186.421 224.563 185.485 222.876 185.348 220.719Z" fill="#999898"/>
</g>
<g opacity="0.199997">
<path opacity="0.199997" d="M219.901 230.899C219.325 235.544 217.066 239.053 214.858 238.735C212.648 238.419 211.323 234.399 211.9 229.754C212.476 225.108 214.734 221.601 216.945 221.917C219.151 222.235 220.477 226.255 219.901 230.899Z" fill="#999898"/>
</g>
<g opacity="0.199997">
<path opacity="0.199997" d="M277.974 265.839C278.71 271.3 270.289 277.133 259.165 278.866C248.042 280.597 238.428 277.573 237.691 272.112C236.955 266.65 245.376 260.819 256.498 259.086C267.621 257.355 277.237 260.379 277.974 265.839Z" fill="#999898"/>
</g>
<g opacity="0.199997">
<path opacity="0.199997" d="M287.674 249.183C288.096 252.169 284.632 255.209 279.939 255.975C275.244 256.742 271.099 254.943 270.675 251.957C270.254 248.971 273.717 245.931 278.412 245.164C283.105 244.399 287.253 246.197 287.674 249.183Z" fill="#999898"/>
</g>
</g>
<path d="M376.954 225.36C376.954 307.522 314.972 374.125 238.514 374.125C162.057 374.125 100.077 307.522 100.077 225.36C100.077 143.2 162.057 76.5946 238.514 76.5946C314.972 76.5946 376.954 143.2 376.954 225.36Z" stroke="#E9E9E9" stroke-width="1.66933" stroke-miterlimit="10"/>
<path d="M300.064 81.9747C314.638 89.21 327.92 98.9346 339.439 110.641" stroke="#E9E9E9" stroke-width="1.77067" stroke-miterlimit="10"/>
<path d="M128.654 120.55C141.434 105.092 156.998 92.3484 174.501 83.2285" stroke="#E9E9E9" stroke-width="1.77067" stroke-miterlimit="10"/>
<path d="M132.761 334.938C113.985 314.019 100.534 287.543 94.7566 258.03" stroke="#E9E9E9" stroke-width="1.77067" stroke-miterlimit="10"/>
<path d="M252.264 382.545C247.737 382.995 243.15 383.226 238.515 383.226C226.113 383.226 214.068 381.574 202.562 378.466" stroke="#E9E9E9" stroke-width="1.77067" stroke-miterlimit="10"/>
<path d="M362.908 141.334C370.039 153.5 375.67 166.786 379.516 180.891" stroke="#E9E9E9" stroke-width="1.77067" stroke-miterlimit="10"/>
<path d="M406.691 69.0588C406.691 72.8239 403.851 75.8743 400.347 75.8743C396.843 75.8743 394.003 72.8239 394.003 69.0588C394.003 65.2936 396.843 62.2412 400.347 62.2412C403.851 62.2412 406.691 65.2936 406.691 69.0588Z" fill="#E9E9E9"/>
<path d="M343.851 128.485L396.478 73.0404" stroke="#E9E9E9" stroke-width="1.66933" stroke-miterlimit="10"/>
<path d="M473.014 59.0803H415.704V52.7094H473.014V59.0803Z" fill="#E9E9E9"/>
<path d="M473.014 71.0323H415.704V64.6614H473.014V71.0323Z" fill="#E9E9E9"/>
<path d="M450.189 82.9844H415.704V76.6135H450.189V82.9844Z" fill="#E9E9E9"/>
<path d="M159.78 447.495C163.113 446.336 164.941 442.494 163.862 438.911C162.783 435.329 159.205 433.365 155.872 434.525C152.54 435.684 150.713 439.528 151.792 443.111C152.871 446.691 156.446 448.657 159.78 447.495Z" fill="#E9E9E9"/>
<path d="M193.039 364.947L160.161 435.827" stroke="#E9E9E9" stroke-width="1.66933" stroke-miterlimit="10"/>
<path d="M83.2979 436.127H140.608V429.757H83.2979V436.127Z" fill="#E9E9E9"/>
<path d="M83.2979 448.08H140.608V441.709H83.2979V448.08Z" fill="#E9E9E9"/>
<path d="M106.125 460.032H140.61V453.661H106.125V460.032Z" fill="#E9E9E9"/>
<path d="M567.432 586.907C567.432 594.136 476.135 600 363.516 600C250.897 600 159.603 594.136 159.603 586.907C159.603 579.678 250.897 573.814 363.516 573.814C476.135 573.814 567.432 579.678 567.432 586.907Z" fill="#F3F1F1"/>
<path d="M473.288 561.191L484.934 558.54L487.881 573.484L476.233 576.133L473.288 561.191Z" fill="#9FD8F5"/>
<path d="M474.219 565.917L485.865 563.266L487.093 569.485L475.445 572.134L474.219 565.917Z" fill="#C3E5F9"/>
<path d="M404.101 238.857L407.397 238.107L407.974 230.83L419.268 228.258L422.623 234.641L426.852 233.679C427.736 233.477 428.606 234.084 428.794 235.036L491.218 551.685L465.263 557.594L402.838 240.943C402.65 239.994 403.215 239.058 404.101 238.857Z" fill="#C3E5F9"/>
<path d="M462.6 544.091L465.262 557.593L491.218 551.684L488.555 538.181L462.6 544.091Z" fill="#9FD8F5"/>
<path d="M396.341 179.023L410.333 175.838L420.452 227.16L406.458 230.343L396.341 179.023Z" fill="#48BFEE"/>
<path d="M393.048 123.644L392.526 123.763L399.903 169.842L403.695 168.98L393.048 123.644Z" fill="#C4C4C4"/>
<path d="M396.341 179.023L410.333 175.838L405.172 167.322L397.844 168.991L396.341 179.023Z" fill="#0CA1D0"/>
<path d="M428.982 275.919L417.859 278.452L472.224 554.225L483.347 551.692L428.982 275.919Z" fill="#9FD8F5"/>
<path d="M452.286 491.772L463.781 489.154L464.512 492.857L453.017 495.475L452.286 491.772Z" fill="#007495"/>
<path d="M450.817 484.313L456.664 482.981L457.037 484.868L451.186 486.198L450.817 484.313Z" fill="#007495"/>
<path d="M448.821 474.189L454.668 472.857L455.041 474.744L449.19 476.074L448.821 474.189Z" fill="#007495"/>
<path d="M446.825 464.066L452.672 462.734L453.045 464.62L447.194 465.95L446.825 464.066Z" fill="#007495"/>
<path d="M442.683 443.059L448.531 441.727L448.904 443.614L443.053 444.944L442.683 443.059Z" fill="#007495"/>
<path d="M440.687 432.936L446.537 431.604L446.908 433.49L441.059 434.82L440.687 432.936Z" fill="#007495"/>
<path d="M438.691 422.812L444.541 421.48L444.912 423.367L439.063 424.697L438.691 422.812Z" fill="#007495"/>
<path d="M434.818 403.163L440.666 401.831L441.039 403.718L435.188 405.048L434.818 403.163Z" fill="#007495"/>
<path d="M432.822 393.04L438.67 391.708L439.043 393.594L433.194 394.924L432.822 393.04Z" fill="#007495"/>
<path d="M430.827 382.916L436.676 381.584L437.047 383.471L431.198 384.8L430.827 382.916Z" fill="#007495"/>
<path d="M426.918 363.087L432.765 361.755L433.138 363.641L427.287 364.971L426.918 363.087Z" fill="#007495"/>
<path d="M424.921 352.963L430.769 351.631L431.142 353.518L425.293 354.848L424.921 352.963Z" fill="#007495"/>
<path d="M422.926 342.839L428.775 341.507L429.146 343.394L423.297 344.724L422.926 342.839Z" fill="#007495"/>
<path d="M419.141 323.643L424.991 322.311L425.362 324.198L419.513 325.528L419.141 323.643Z" fill="#007495"/>
<path d="M417.145 313.519L422.995 312.187L423.366 314.074L417.517 315.404L417.145 313.519Z" fill="#007495"/>
<path d="M415.149 303.396L420.999 302.064L421.37 303.95L415.52 305.28L415.149 303.396Z" fill="#007495"/>
<path d="M444.472 452.134L455.967 449.518L456.698 453.221L445.203 455.837L444.472 452.134Z" fill="#007495"/>
<path d="M436.658 412.498L448.153 409.879L448.884 413.582L437.389 416.2L436.658 412.498Z" fill="#007495"/>
<path d="M428.844 372.861L440.339 370.243L441.07 373.946L429.575 376.564L428.844 372.861Z" fill="#007495"/>
<path d="M421.03 333.225L432.525 330.607L433.254 334.31L421.761 336.928L421.03 333.225Z" fill="#007495"/>
<path d="M413.216 293.587L424.711 290.969L425.44 294.672L413.946 297.29L413.216 293.587Z" fill="#007495"/>
<path d="M409.782 247.111L423.937 243.89C425.619 243.506 427.274 244.661 427.63 246.471L432.667 272.021C433.025 273.831 431.948 275.607 430.266 275.989L416.109 279.212C414.427 279.597 412.774 278.441 412.416 276.632L407.379 251.082C407.023 249.272 408.098 247.495 409.782 247.111Z" fill="#32A7D2"/>
<path d="M432.494 271.139L427.797 247.315L407.546 251.924L412.243 275.747L432.494 271.139Z" fill="#68C6F0"/>
<path d="M404.644 229.568L421.817 225.66L422.388 228.552L405.215 232.461L404.644 229.568Z" fill="#91D3F4"/>
<path d="M450.507 557.49L504.033 545.305C505.191 545.041 506.33 545.837 506.578 547.082L507.852 553.552C508.097 554.801 507.357 556.025 506.199 556.289L452.673 568.474C451.512 568.738 450.373 567.942 450.128 566.695L448.852 560.222C448.606 558.978 449.347 557.754 450.507 557.49Z" fill="#C3E5F9"/>
<path d="M464.794 576.757L498.15 569.164C499.096 568.948 500.024 569.599 500.223 570.613L501.263 575.886C501.464 576.902 500.859 577.9 499.915 578.114L466.558 585.711C465.614 585.925 464.684 585.276 464.485 584.258L463.444 578.987C463.243 577.971 463.849 576.973 464.794 576.757Z" fill="#C3E5F9"/>
<path d="M253.808 484.358L251.248 475.15C250.187 471.327 250.132 467.263 251.093 463.41L266.054 403.394C267.435 397.855 264.376 392.161 259.219 390.678C254.064 389.192 248.765 392.481 247.385 398.021L232.515 457.667C231.496 461.752 229.382 465.424 226.435 468.225L219.872 474.467C218.233 476.027 217.053 478.074 216.486 480.347L192.354 577.157C191.898 578.983 192.907 580.859 194.605 581.35L225.811 590.33C227.508 590.819 229.254 589.736 229.709 587.912L253.895 490.895C254.429 488.748 254.4 486.485 253.808 484.358Z" fill="#003958"/>
<path d="M213.998 490.334L194.354 569.138L231.708 579.891L251.353 501.087L213.998 490.334Z" fill="#FCFBE8"/>
<path d="M209.783 507.235L204.586 528.095L241.94 538.848L247.14 517.988L209.783 507.235Z" fill="#007495"/>
<path d="M211.479 500.437L210.837 503.012L248.192 513.767L248.834 511.192L211.479 500.437Z" fill="#007495"/>
<path d="M203.588 532.092L202.946 534.667L240.3 545.422L240.942 542.848L203.588 532.092Z" fill="#007495"/>
<path d="M259.258 394.139C262.242 395.392 264.284 399.885 262.81 405.784C261.339 411.687 249.425 459.481 248.385 463.658C247.345 467.832 247.54 472.119 248.925 476.464C251.448 484.387 252.523 487.375 250.909 493.852C250.939 488.532 249.549 485.251 246.973 478.525C245.16 473.783 243.588 469.075 245.278 462.301C247.573 453.085 257.586 412.922 259.094 406.877C260.6 400.83 261.515 397.973 259.258 394.139Z" fill="#007495"/>
<path d="M247.384 398.021L232.516 457.667C231.495 461.753 229.382 465.424 226.435 468.225L219.872 474.467C218.232 476.028 217.053 478.072 216.486 480.348L192.354 577.159C191.899 578.984 192.907 580.86 194.605 581.35L210.089 585.805L258.758 390.572C253.752 389.406 248.722 392.646 247.384 398.021Z" fill="#CECECE"/>
<path d="M266.604 317.223C266.604 310.536 267.458 308.358 274.335 300.051C285.447 286.626 302.85 266.931 302.85 266.931H383.576C383.576 266.931 402.247 288.992 411.428 300.051C416.386 306.025 417.175 309.291 417.175 317.69V568.91C417.175 578.144 410.21 585.633 401.615 585.633H282.166C273.571 585.633 266.604 578.144 266.604 568.91V317.223Z" fill="#004670"/>
<path d="M383.58 239.259H302.851V266.93H383.58V239.259Z" fill="#003958"/>
<path d="M394.708 219.266H290.214C287.087 219.266 284.552 221.99 284.552 225.35V235.499C284.552 238.861 287.087 241.585 290.214 241.585H394.708C397.834 241.585 400.369 238.861 400.369 235.499V225.35C400.369 221.99 397.834 219.266 394.708 219.266Z" fill="#BEBEBE"/>
<path d="M417.174 552.903H266.604V338.948H417.174V552.903Z" fill="#FDFADD"/>
<path d="M417.174 364.224H266.604V356.324H417.174V364.224Z" fill="#007495"/>
<path d="M417.174 544.741H266.604V514.19H417.174V544.741Z" fill="#007495"/>
<path d="M417.174 506.053H266.604V501.176H417.174V506.053Z" fill="#007495"/>
<path d="M391.53 422.765H293.073C288.728 422.765 285.207 418.981 285.207 414.312V410.302C285.207 405.633 288.728 401.849 293.073 401.849H391.53C395.875 401.849 399.396 405.633 399.396 410.302V414.312C399.396 418.981 395.875 422.765 391.53 422.765Z" fill="#007495"/>
<path d="M372.012 431.962H312.592C309.219 431.962 306.487 434.898 306.487 438.522C306.487 442.143 309.219 445.082 312.592 445.082H372.012C375.382 445.082 378.114 442.143 378.114 438.522C378.114 434.898 375.382 431.962 372.012 431.962Z" fill="#007495"/>
<path d="M293.513 308.968H409.282C409.282 308.968 408.539 306.25 405.237 302.055C402.506 298.587 382.557 273.236 382.557 273.236L399.824 305.431L293.513 308.968Z" fill="#006C9E"/>
<path d="M266.664 570.207C267.281 578.832 273.977 585.633 282.167 585.633H401.613C409.801 585.633 416.497 578.832 417.116 570.207H266.664Z" fill="#003958"/>
<path d="M290.214 219.266C287.087 219.266 284.552 221.99 284.552 225.35V235.499C284.552 238.861 287.087 241.585 290.214 241.585H302.85V266.931C302.85 266.931 285.447 286.625 274.335 300.051C267.458 308.358 266.604 310.536 266.604 317.222V338.949V356.322V364.222V501.177V506.054V514.189V544.74V552.904V568.91C266.604 569.346 266.635 569.777 266.664 570.207C266.702 570.728 266.764 571.241 266.845 571.748C266.847 571.773 266.851 571.798 266.855 571.819C266.934 572.309 267.037 572.787 267.153 573.261C267.164 573.303 267.174 573.346 267.186 573.386C267.302 573.841 267.437 574.283 267.588 574.72L267.65 574.903C267.799 575.318 267.965 575.726 268.143 576.127C268.178 576.201 268.211 576.278 268.245 576.353C268.419 576.733 268.611 577.101 268.812 577.463C268.862 577.554 268.913 577.646 268.965 577.735C269.162 578.076 269.371 578.406 269.589 578.732C269.659 578.834 269.73 578.936 269.802 579.038C270.019 579.341 270.239 579.634 270.473 579.919C270.564 580.033 270.661 580.141 270.755 580.251C270.982 580.515 271.212 580.771 271.453 581.018C271.569 581.138 271.691 581.253 271.811 581.369C272.045 581.596 272.283 581.814 272.529 582.024C272.672 582.146 272.82 582.261 272.967 582.379C273.205 582.564 273.443 582.751 273.691 582.923C273.863 583.044 274.041 583.154 274.219 583.266C274.456 583.42 274.692 583.574 274.938 583.713C275.137 583.825 275.344 583.925 275.549 584.029C275.785 584.147 276.017 584.272 276.26 584.378C276.489 584.478 276.723 584.563 276.959 584.652C277.191 584.739 277.417 584.835 277.653 584.912C277.914 584.997 278.181 585.064 278.447 585.132C278.668 585.19 278.884 585.257 279.107 585.307C279.412 585.371 279.728 585.411 280.043 585.458C280.234 585.487 280.422 585.527 280.613 585.548C281.083 585.598 281.561 585.623 282.042 585.625C282.085 585.625 282.123 585.633 282.166 585.633H341.891V219.266H290.214Z" fill="#CECECE"/>
<path d="M529.302 234.392C524.093 226.29 526.556 234.845 524.271 236.54C522.3 238.007 516.176 242.552 513.717 244.378C511.911 241.166 509.407 238.437 506.4 236.449C507.635 234.743 508.971 232.9 509.673 231.934C511.041 230.045 516.403 232.424 511.361 228.202C506.318 223.984 509.621 229.122 508.432 230.764C507.786 231.655 506.293 233.719 504.946 235.572C502.675 234.317 500.175 233.442 497.493 233.097C497.273 233.07 497.054 233.07 496.836 233.049C496.824 231.632 496.799 228.239 496.789 226.901C496.778 225.351 500.388 224.243 496.252 224.279C492.12 224.314 495.714 225.496 495.724 226.843C495.734 227.986 495.759 231.476 495.77 232.971C493.204 232.858 490.714 233.222 488.37 234.003C487.84 231.476 486.833 226.687 486.413 224.694C485.889 222.201 491.35 219.051 484.69 220.669C478.031 222.286 484.22 222.835 484.677 225.004C485.048 226.776 486.162 232.081 486.699 234.625C485.661 235.071 484.671 235.622 483.716 236.229C482.969 235.109 481.631 233.101 481.067 232.256C480.343 231.169 482.376 228.461 479.475 230.693C476.577 232.925 479.659 231.838 480.287 232.783C480.769 233.502 482.14 235.56 482.921 236.729C479.69 238.98 477.041 242.134 475.264 245.891C472.197 244.644 467.717 242.824 465.711 242.007C462.815 240.829 463.553 232.198 460.407 241.128C457.263 250.059 462.258 243.231 464.777 244.258C466.508 244.96 471.149 246.847 474.336 248.143C473.701 249.926 473.235 251.807 473.015 253.789C472.721 256.424 472.862 259 473.344 261.459C471.029 262.244 466.578 263.757 464.729 264.384C462.434 265.163 459.013 259.509 461.098 266.593C463.178 273.674 463.169 266.921 465.166 266.242C466.742 265.708 471.344 264.143 473.767 263.32C475.032 267.888 477.559 271.917 480.956 274.905C479.707 275.993 478.116 277.379 477.362 278.036C476.147 279.096 472.827 276.557 475.656 280.301C478.483 284.047 476.981 279.968 478.037 279.048C478.738 278.437 480.562 276.85 481.888 275.69C482.476 276.153 483.087 276.588 483.72 276.987C482.691 279.638 481.229 283.407 480.564 285.122C479.591 287.628 473.061 286.747 479.752 289.747C486.444 292.745 481.401 288.182 482.246 286.003C482.815 284.538 484.311 280.675 485.377 277.926C487.498 279.017 489.807 279.777 492.27 280.093C492.965 280.182 493.657 280.226 494.343 280.247C494.337 282.869 494.33 286.192 494.326 287.773C494.32 290.331 488.341 292.093 495.171 292.112C501.997 292.13 496.078 290.113 496.084 287.889C496.087 286.491 496.095 282.95 496.103 280.203C497.153 280.141 498.187 280.01 499.201 279.792C499.475 281.147 499.839 282.921 500.009 283.752C500.274 285.057 497.412 286.684 500.895 285.863C504.377 285.043 501.146 284.733 500.916 283.599C500.765 282.865 500.382 280.982 500.094 279.565C503.25 278.738 506.17 277.19 508.656 275.046C509.617 276.16 510.468 277.145 511.06 277.83C513.521 280.683 508.569 289.307 516.186 281.718C523.801 274.13 515.268 278.481 513.129 276C512.578 275.362 511.679 274.319 510.629 273.103C513.842 269.569 516.058 264.943 516.702 259.678C518.684 260.241 520.987 260.895 522.138 261.224C524.164 261.799 524.228 267.665 525.765 261.419C527.303 255.171 524.383 260.141 522.621 259.638C521.566 259.339 518.965 258.599 516.838 257.995C516.975 255.551 516.76 253.166 516.232 250.892C517.485 250.628 519.765 250.151 520.724 249.951C521.944 249.693 523.391 252.806 522.708 249.045C522.026 245.286 521.664 248.748 520.603 248.97C519.756 249.147 517.288 249.664 516.014 249.932C515.703 248.794 515.295 247.699 514.832 246.633C517.081 244.964 523.153 240.455 525.499 238.714C528.126 236.763 534.51 242.491 529.302 234.392Z" fill="#F2F2F2"/>
<path d="M136.409 514.887C133.18 509.863 134.708 515.17 133.29 516.221C132.068 517.129 128.27 519.949 126.747 521.079C125.625 519.086 124.072 517.397 122.206 516.163C122.974 515.105 123.802 513.962 124.237 513.364C125.086 512.192 128.41 513.667 125.285 511.049C122.158 508.433 124.206 511.62 123.469 512.639C123.069 513.191 122.141 514.469 121.305 515.62C119.9 514.841 118.347 514.299 116.684 514.085C116.549 514.066 116.411 514.068 116.276 514.056C116.27 513.177 116.253 511.072 116.247 510.243C116.239 509.283 118.48 508.595 115.914 508.616C113.35 508.639 115.582 509.372 115.586 510.205C115.591 510.914 115.609 513.079 115.616 514.006C114.025 513.935 112.48 514.16 111.028 514.646C110.697 513.079 110.073 510.11 109.814 508.874C109.489 507.328 112.875 505.374 108.744 506.376C104.616 507.382 108.452 507.72 108.735 509.065C108.967 510.166 109.659 513.455 109.991 515.03C109.348 515.309 108.733 515.65 108.141 516.026C107.679 515.332 106.847 514.087 106.497 513.561C106.049 512.888 107.309 511.209 105.511 512.593C103.715 513.979 105.625 513.304 106.014 513.89C106.314 514.336 107.162 515.612 107.648 516.337C105.645 517.732 104.001 519.689 102.899 522.018C100.998 521.245 98.2192 520.117 96.9759 519.61C95.1795 518.881 95.6378 513.528 93.6867 519.066C91.7356 524.603 94.8353 520.371 96.3958 521.004C97.469 521.441 100.348 522.613 102.324 523.415C101.93 524.522 101.642 525.688 101.505 526.916C101.323 528.549 101.41 530.149 101.708 531.672C100.275 532.161 97.5115 533.098 96.3668 533.486C94.9416 533.97 92.8223 530.465 94.1121 534.856C95.4038 539.248 95.398 535.059 96.6375 534.639C97.6159 534.307 100.468 533.339 101.971 532.828C102.754 535.66 104.322 538.157 106.43 540.011C105.654 540.686 104.668 541.544 104.2 541.952C103.446 542.61 101.389 541.035 103.142 543.358C104.896 545.679 103.964 543.153 104.62 542.579C105.053 542.203 106.184 541.216 107.008 540.497C107.371 540.786 107.75 541.054 108.143 541.303C107.505 542.947 106.598 545.285 106.186 546.346C105.583 547.901 101.534 547.354 105.683 549.216C109.833 551.074 106.704 548.246 107.228 546.893C107.582 545.985 108.508 543.589 109.172 541.885C110.486 542.56 111.917 543.032 113.445 543.229C113.876 543.284 114.304 543.313 114.731 543.325C114.727 544.95 114.723 547.011 114.719 547.992C114.715 549.575 111.009 550.67 115.243 550.683C119.476 550.691 115.808 549.442 115.812 548.063C115.814 547.196 115.82 545 115.823 543.298C116.471 543.259 117.113 543.175 117.744 543.042C117.914 543.882 118.138 544.981 118.242 545.496C118.407 546.307 116.634 547.315 118.794 546.806C120.953 546.296 118.95 546.105 118.807 545.403C118.714 544.948 118.476 543.78 118.297 542.901C120.255 542.388 122.065 541.428 123.606 540.098C124.204 540.79 124.73 541.401 125.097 541.825C126.623 543.593 123.554 548.942 128.276 544.235C132.998 539.529 127.708 542.228 126.379 540.69C126.039 540.295 125.482 539.647 124.83 538.895C126.824 536.701 128.197 533.833 128.597 530.569C129.825 530.918 131.254 531.323 131.968 531.527C133.225 531.884 133.263 535.523 134.217 531.647C135.17 527.774 133.36 530.856 132.267 530.544C131.612 530.357 130.001 529.9 128.68 529.526C128.765 528.007 128.634 526.529 128.307 525.121C129.081 524.959 130.496 524.659 131.092 524.537C131.848 524.377 132.743 526.307 132.321 523.976C131.898 521.642 131.674 523.789 131.014 523.93C130.49 524.038 128.959 524.36 128.168 524.526C127.977 523.82 127.723 523.14 127.435 522.478C128.831 521.443 132.596 518.648 134.052 517.567C135.68 516.358 139.64 519.911 136.409 514.887Z" fill="#F2F2F2"/>
<path d="M284.086 26.7753C281.253 22.3701 282.595 27.0225 281.352 27.9431C280.279 28.741 276.951 31.2116 275.613 32.2048C274.631 30.4573 273.269 28.9758 271.635 27.8953C272.306 26.9664 273.031 25.9628 273.412 25.4392C274.157 24.4127 277.073 25.7052 274.331 23.4112C271.591 21.1151 273.387 23.9098 272.739 24.8033C272.387 25.2875 271.575 26.4096 270.844 27.4173C269.611 26.7337 268.251 26.26 266.791 26.0729C266.671 26.0563 266.554 26.0584 266.434 26.0459C266.428 25.275 266.414 23.4299 266.409 22.7026C266.401 21.861 268.365 21.2584 266.117 21.2771C263.87 21.2959 265.825 21.9379 265.83 22.6693C265.836 23.2927 265.848 25.1898 265.854 26.0023C264.461 25.942 263.104 26.1394 261.832 26.5633C261.543 25.1898 260.996 22.5862 260.766 21.5036C260.482 20.1489 263.452 18.4346 259.83 19.3135C256.21 20.1946 259.575 20.4917 259.822 21.6699C260.025 22.634 260.631 25.5202 260.923 26.902C260.358 27.1451 259.82 27.4444 259.3 27.7727C258.894 27.1638 258.167 26.0729 257.86 25.6137C257.465 25.0236 258.573 23.5524 256.995 24.7639C255.419 25.9774 257.094 25.3872 257.436 25.9005C257.699 26.2932 258.444 27.4111 258.867 28.0469C257.111 29.2688 255.671 30.9851 254.706 33.0277C253.035 32.3503 250.603 31.3591 249.512 30.9165C247.938 30.2765 248.338 25.5826 246.627 30.4386C244.918 35.2947 247.633 31.5815 249.002 32.1404C249.945 32.5227 252.467 33.5471 254.201 34.2516C253.855 35.2219 253.602 36.2443 253.482 37.3227C253.323 38.7544 253.399 40.1549 253.662 41.493C252.403 41.9211 249.98 42.7419 248.978 43.0826C247.727 43.5065 245.869 40.4333 247 44.2837C248.133 48.134 248.128 44.4624 249.214 44.0925C250.071 43.8016 252.573 42.9517 253.892 42.505C254.578 44.9881 255.953 47.1782 257.8 48.8031C257.121 49.3953 256.255 50.1496 255.847 50.507C255.185 51.0825 253.379 49.7007 254.919 51.7371C256.456 53.7755 255.638 51.5563 256.212 51.0555C256.593 50.7231 257.585 49.8607 258.306 49.2311C258.627 49.4826 258.958 49.7194 259.302 49.9355C258.743 51.3776 257.947 53.4264 257.587 54.3573C257.057 55.7204 253.509 55.2425 257.144 56.8716C260.783 58.5027 258.042 56.0217 258.502 54.8373C258.811 54.0415 259.625 51.9407 260.203 50.4467C261.358 51.0389 262.613 51.4524 263.951 51.6228C264.33 51.6727 264.707 51.6976 265.08 51.708C265.076 53.1334 265.072 54.9412 265.068 55.8014C265.067 57.1916 261.814 58.1495 265.529 58.1599C269.239 58.1682 266.022 57.0731 266.026 55.8638C266.028 55.1033 266.031 53.1791 266.035 51.6851C266.606 51.6498 267.168 51.5792 267.72 51.4607C267.868 52.1984 268.068 53.1625 268.158 53.6155C268.304 54.3241 266.747 55.2072 268.642 54.7604C270.535 54.3158 268.779 54.1474 268.654 53.5303C268.572 53.1313 268.362 52.1069 268.205 51.3381C269.922 50.8872 271.51 50.0457 272.861 48.88C273.385 49.4867 273.845 50.0207 274.168 50.3948C275.506 51.9449 272.815 56.6326 276.955 52.508C281.095 48.3813 276.456 50.748 275.292 49.3994C274.994 49.0524 274.505 48.4852 273.934 47.8223C275.68 45.9023 276.885 43.386 277.237 40.5247C278.314 40.8302 279.565 41.1876 280.192 41.3642C281.294 41.678 281.327 44.8675 282.164 41.4702C282.999 38.0728 281.412 40.7762 280.455 40.5019C279.878 40.3398 278.467 39.9367 277.309 39.6084C277.384 38.2806 277.268 36.984 276.98 35.7476C277.663 35.6043 278.902 35.3445 279.424 35.2344C280.087 35.0952 280.872 36.7887 280.501 34.7419C280.13 32.6994 279.935 34.5819 279.356 34.7025C278.896 34.798 277.554 35.0806 276.862 35.2261C276.692 34.6069 276.471 34.0105 276.22 33.4308C277.442 32.5248 280.743 30.0729 282.019 29.1254C283.448 28.0636 286.919 31.1804 284.086 26.7753Z" fill="#F2F2F2"/>
<path d="M458.234 140.217C459.162 143.549 457.404 147.061 454.303 148.061C451.201 149.062 447.933 147.171 447.001 143.838C446.071 140.505 447.831 136.994 450.932 135.994C454.034 134.993 457.304 136.884 458.234 140.217Z" fill="#E9E9E9"/>
<path d="M481.627 159.077C482.557 162.41 480.797 165.922 477.698 166.923C474.596 167.923 471.328 166.032 470.396 162.699C469.466 159.368 471.226 155.854 474.327 154.855C477.427 153.853 480.697 155.744 481.627 159.077Z" fill="#E9E9E9"/>
<path d="M454.484 172.707C455.414 176.04 453.656 179.552 450.554 180.551C447.453 181.553 444.185 179.662 443.253 176.329C442.323 172.996 444.082 169.484 447.184 168.485C450.286 167.483 453.554 169.374 454.484 172.707Z" fill="#E9E9E9"/>
<path d="M452.599 142.804L448.869 174.519L476.01 160.888L452.599 142.804Z" stroke="#E9E9E9" stroke-width="0.844" stroke-miterlimit="10"/>
<path d="M103.626 354.397C103.082 356.23 101.259 357.242 99.5533 356.658C97.8478 356.074 96.9061 354.115 97.4494 352.282C97.9928 350.452 99.8163 349.438 101.522 350.023C103.227 350.607 104.169 352.565 103.626 354.397Z" fill="#E9E9E9"/>
<path d="M108.819 370.852C108.275 372.685 106.452 373.697 104.746 373.113C103.041 372.529 102.099 370.568 102.643 368.735C103.186 366.904 105.009 365.89 106.715 366.476C108.42 367.06 109.362 369.02 108.819 370.852Z" fill="#E9E9E9"/>
<path d="M92.4759 367.963C91.9325 369.798 90.1091 370.807 88.4036 370.226C86.6981 369.642 85.7544 367.68 86.2997 365.848C86.8431 364.017 88.6666 363.003 90.3721 363.589C92.0776 364.173 93.0193 366.13 92.4759 367.963Z" fill="#E9E9E9"/>
<path d="M100.303 353.687L89.3876 366.905L105.731 369.795L100.303 353.687Z" stroke="#E9E9E9" stroke-width="0.466667" stroke-miterlimit="10"/>
<path d="M521.926 118.388C521.926 120.156 520.592 121.59 518.945 121.59C517.297 121.59 515.965 120.156 515.965 118.388C515.965 116.617 517.297 115.183 518.945 115.183C520.592 115.183 521.926 116.617 521.926 118.388Z" fill="#F3F1F1"/>
<path d="M566.637 167.233C566.637 171.215 563.634 174.439 559.929 174.439C556.226 174.439 553.223 171.215 553.223 167.233C553.223 163.252 556.226 160.027 559.929 160.027C563.634 160.027 566.637 163.252 566.637 167.233Z" fill="#F3F1F1"/>
<path d="M52.4608 186.051C52.4608 187.157 51.6274 188.052 50.5987 188.052C49.568 188.052 48.7346 187.157 48.7346 186.051C48.7346 184.946 49.568 184.05 50.5987 184.05C51.6274 184.05 52.4608 184.946 52.4608 186.051Z" fill="#F3F1F1"/>
<path d="M70.8789 165.969C70.8789 170.171 67.7096 173.576 63.7997 173.576C59.8898 173.576 56.7205 170.171 56.7205 165.969C56.7205 161.768 59.8898 158.362 63.7997 158.362C67.7096 158.362 70.8789 161.768 70.8789 165.969Z" fill="#F3F1F1"/>
<path d="M189.195 24.9804C189.195 27.1913 187.528 28.9845 185.468 28.9845C183.411 28.9845 181.742 27.1913 181.742 24.9804C181.742 22.7695 183.411 20.9763 185.468 20.9763C187.528 20.9763 189.195 22.7695 189.195 24.9804Z" fill="#F3F1F1"/>
<path d="M543.536 483.536C543.536 485.745 541.868 487.54 539.81 487.54C537.753 487.54 536.084 485.745 536.084 483.536C536.084 481.325 537.753 479.53 539.81 479.53C541.868 479.53 543.536 481.325 543.536 483.536Z" fill="#F3F1F1"/>
<path d="M587.501 507.957C587.501 511.276 584.999 513.964 581.913 513.964C578.827 513.964 576.324 511.276 576.324 507.957C576.324 504.641 578.827 501.952 581.913 501.952C584.999 501.952 587.501 504.641 587.501 507.957Z" fill="#F3F1F1"/>
<path d="M68.1096 493.946C68.1096 496.154 66.4408 497.95 64.3834 497.95C62.326 497.95 60.6572 496.154 60.6572 493.946C60.6572 491.735 62.326 489.941 64.3834 489.941C66.4408 489.941 68.1096 491.735 68.1096 493.946Z" fill="#F3F1F1"/>
<path d="M179.141 498.749C179.141 504.058 175.138 508.359 170.2 508.359C165.261 508.359 161.258 504.058 161.258 498.749C161.258 493.442 165.261 489.141 170.2 489.141C175.138 489.141 179.141 493.442 179.141 498.749Z" fill="#F3F1F1"/>
<path d="M66.6197 564.813C66.6197 567.244 64.7847 569.216 62.5204 569.216C60.256 569.216 58.4229 567.244 58.4229 564.813C58.4229 562.38 60.256 560.408 62.5204 560.408C64.7847 560.408 66.6197 562.38 66.6197 564.813Z" fill="#F3F1F1"/>
<path d="M571.108 106.776C571.108 108.324 569.94 109.58 568.498 109.58C567.059 109.58 565.891 108.324 565.891 106.776C565.891 105.228 567.059 103.973 568.498 103.973C569.94 103.973 571.108 105.228 571.108 106.776Z" fill="#F3F1F1"/>
<path d="M481.053 29.4751C481.053 32.5711 478.719 35.0812 475.838 35.0812C472.957 35.0812 470.621 32.5711 470.621 29.4751C470.621 26.379 472.957 23.8689 475.838 23.8689C478.719 23.8689 481.053 26.379 481.053 29.4751Z" fill="#F3F1F1"/>
<path d="M161.407 -1.85145C161.407 -0.523676 160.406 0.550598 159.172 0.550598C157.937 0.550598 156.935 -0.523676 156.935 -1.85145C156.935 -3.17715 157.937 -4.25351 159.172 -4.25351C160.406 -4.25351 161.407 -3.17715 161.407 -1.85145Z" fill="#F3F1F1"/>
<path d="M548.212 38.8146C548.212 43.9491 544.339 48.1111 539.559 48.1111C534.783 48.1111 530.908 43.9491 530.908 38.8146C530.908 33.6801 534.783 29.516 539.559 29.516C544.339 29.516 548.212 33.6801 548.212 38.8146Z" fill="#D9D9D9"/>
<path d="M590.545 262.093C590.545 264.252 588.917 266.002 586.91 266.002C584.901 266.002 583.273 264.252 583.273 262.093C583.273 259.935 584.901 258.187 586.91 258.187C588.917 258.187 590.545 259.935 590.545 262.093Z" fill="#D9D9D9"/>
<path d="M369.455 8.49123C369.455 10.8663 367.662 12.7904 365.456 12.7904C363.246 12.7904 361.453 10.8663 361.453 8.49123C361.453 6.11619 363.246 4.19414 365.456 4.19414C367.662 4.19414 369.455 6.11619 369.455 8.49123Z" fill="#D9D9D9"/>
<path d="M18.1813 164.013C18.1813 165.956 16.7156 167.531 14.9096 167.531C13.1016 167.531 11.6358 165.956 11.6358 164.013C11.6358 162.07 13.1016 160.497 14.9096 160.497C16.7156 160.497 18.1813 162.07 18.1813 164.013Z" fill="#D9D9D9"/>
<path d="M5.81843 547.348C5.81843 549.075 4.51513 550.473 2.90825 550.473C1.3033 550.473 0 549.075 0 547.348C0 545.621 1.3033 544.221 2.90825 544.221C4.51513 544.221 5.81843 545.621 5.81843 547.348Z" fill="#D9D9D9"/>
<path d="M120.712 589.157C120.712 591.963 118.594 594.236 115.984 594.236C113.373 594.236 111.256 591.963 111.256 589.157C111.256 586.35 113.373 584.077 115.984 584.077C118.594 584.077 120.712 586.35 120.712 589.157Z" fill="#D9D9D9"/>
<path d="M566.546 549.692C566.546 552.713 564.266 555.163 561.455 555.163C558.643 555.163 556.364 552.713 556.364 549.692C556.364 546.671 558.643 544.221 561.455 544.221C564.266 544.221 566.546 546.671 566.546 549.692Z" fill="#D9D9D9"/>
<path d="M600 294.527C600 296.902 598.209 298.824 596.001 298.824C593.791 298.824 592 296.902 592 294.527C592 292.152 593.791 290.228 596.001 290.228C598.209 290.228 600 292.152 600 294.527Z" fill="#D9D9D9"/>
</svg>
